<svg id="Layer_1" data-name="Layer 1" xmlns="http://www.w3.org/2000/svg" viewBox="0 0 356.11 270.47"><defs><style>.cls-1{fill:#e9ecef;}.cls-2{opacity:0.11;}.cls-3{fill:none;stroke:#1d2530;stroke-linecap:round;stroke-miterlimit:10;stroke-width:4.5px;}.cls-4{fill:#b5b5b5;}.cls-5,.cls-6{fill:#fff;}.cls-5{opacity:0.54;}.cls-7{fill:#00c281;}.cls-8{fill:#a36652;}.cls-9{fill:#1d2530;}</style></defs><title>no-results</title><path class="cls-1" d="M345.46,150.1a18.1,18.1,0,0,1-18.06,18.05H281.76a18.07,18.07,0,0,0,0,36.14h13.85a18.06,18.06,0,1,1,0,36.11H109a18.06,18.06,0,1,1,0-36.11h15A17.88,17.88,0,0,0,136.73,199,18.07,18.07,0,0,0,124,168.15H27.24a18.05,18.05,0,0,1,0-36.1H109a18.06,18.06,0,0,1,0-36.11H297.51a18.06,18.06,0,1,1,0,36.11H327.4A18.08,18.08,0,0,1,345.46,150.1Z"/><path class="cls-2" d="M272.41,229.27,236.55,192l.87-.87,1-1a2.88,2.88,0,0,0,0-4l-3.61-3.61a2.86,2.86,0,0,0-4.05,0l-1,1L227.25,186l-12.58-13a71.29,71.29,0,0,0-53.9-115.65l.09,0h-1.81c-.76,0-1.51,0-2.26,0l-1.12,0c-.78,0-1.55.08-2.33.14l-1.05.09c-.8.08-1.59.15-2.39.25l-1,.15c-.81.11-1.61.23-2.42.37l-1,.18c-.81.16-1.62.31-2.42.49l-1,.24c-.8.19-1.6.38-2.4.61-.32.08-.63.19-1,.28-.79.23-1.58.46-2.37.72l-.95.34c-.78.27-1.56.54-2.33.84-.32.12-.64.26-.95.39-.77.3-1.53.61-2.28.94l-1,.46c-.74.34-1.48.68-2.21,1.05-.33.16-.64.34-1,.51-.73.38-1.45.75-2.16,1.16-.32.18-.63.38-1,.57-.7.41-1.41.82-2.1,1.27-.31.19-.61.41-.92.61-.69.46-1.38.91-2.05,1.39-.3.21-.58.43-.87.64-.68.5-1.36,1-2,1.53l-.74.61c-.7.57-1.39,1.13-2.07,1.73l-.16.14c-.86.76-1.71,1.54-2.54,2.34a71.31,71.31,0,0,0-1.54,100.86l.35.34c.61.62,1.23,1.23,1.85,1.82l.76.7c.71.66,1.42,1.3,2.15,1.91l.71.59c.62.51,1.25,1,1.88,1.5l.64.5c.77.58,1.55,1.14,2.33,1.68l.81.55c.79.53,1.6,1.06,2.41,1.56l.57.33c.71.43,1.42.84,2.13,1.24l.78.43c.83.44,1.67.87,2.51,1.29l.8.38c.75.35,1.5.69,2.26,1l.55.24c.87.37,1.76.71,2.64,1l.86.32c.88.32,1.77.62,2.66.9l.71.22c.76.23,1.52.45,2.29.65l.77.21c.9.23,1.8.44,2.71.64l.88.18c.86.17,1.73.33,2.6.48l.62.09c.85.14,1.7.25,2.55.35l.87.1c.92.1,1.84.18,2.77.24l.8,0c.8.05,1.61.08,2.41.1l.67,0q1.41,0,2.82,0l.85,0c.95,0,1.9-.08,2.85-.16l.53-.05c.85-.07,1.7-.16,2.55-.26l.73-.09c.81-.11,1.63-.23,2.44-.36h-.06a70.7,70.7,0,0,0,29-11.84l13,13.42-4.29,4.29-1,1a2.85,2.85,0,0,0,0,4l3.61,3.61a2.85,2.85,0,0,0,4,0l1-1,3.27-3.27,36,36.59c3.4,3.5,9.93,2.67,14.6-1.86l.17-.17C274.77,239.28,275.8,232.77,272.41,229.27Z"/><line class="cls-3" x1="310.68" y1="182.73" x2="314.74" y2="182.73"/><line class="cls-3" x1="65.66" y1="207.56" x2="41.57" y2="207.56"/><line class="cls-3" x1="33.83" y1="207.56" x2="29.76" y2="207.56"/><circle class="cls-4" cx="337.38" cy="210.28" r="2.72"/><circle class="cls-3" cx="82.98" cy="183.67" r="3.27"/><path class="cls-3" d="M325.84,43.45s-.3,5.93-6.11,6"/><path class="cls-3" d="M326,55.77s.73-6,5.95-6.28"/><path class="cls-3" d="M331.83,49.49s-6-.22-6-6"/><path class="cls-3" d="M319.73,49.41S326,50,326,55.77"/><line class="cls-3" x1="280.38" y1="182.73" x2="303.01" y2="182.73"/><circle class="cls-5" cx="164.45" cy="125.85" r="61.36"/><rect class="cls-6" x="209.16" y="135.73" width="20.61" height="96.9" transform="translate(-66.31 204.78) rotate(-44.13)"/><path class="cls-6" d="M275.71,241l-.17.17c-4.67,4.53-11.2,5.36-14.6,1.86L221.8,203.29,239,185.9l39,40.57C281.4,230,280.37,236.48,275.71,241Z"/><path class="cls-3" d="M239,185.9l39,40.57c3.39,3.5,2.36,10-2.3,14.53l-.17.17c-4.67,4.53-11.2,5.36-14.6,1.86L221.8,203.29"/><line class="cls-3" x1="221.8" y1="203.29" x2="238.98" y2="185.9"/><circle class="cls-6" cx="164.45" cy="125.85" r="71.32" transform="translate(-40.82 153.14) rotate(-45)"/><path class="cls-7" d="M176.32,196.19a71.33,71.33,0,1,1-9.86-141.64,71.33,71.33,0,0,0,9.86,141.64Z"/><circle class="cls-3" cx="164.45" cy="125.85" r="71.32" transform="translate(-40.82 153.14) rotate(-45)"/><path class="cls-8" d="M222.09,203.25l16.34-16.54a1.56,1.56,0,0,0,.09-2.09l-.16-.2a1.56,1.56,0,0,0-2.32-.09l-16.19,16.73a1.55,1.55,0,0,0,.05,2.22l0,0A1.55,1.55,0,0,0,222.09,203.25Z"/><rect class="cls-7" x="209.36" y="190.26" width="37.33" height="10.83" rx="2.86" transform="translate(-71.57 218.54) rotate(-45)"/><rect class="cls-3" x="210.32" y="189.29" width="37.33" height="10.83" rx="2.86" transform="translate(-70.61 218.94) rotate(-45)"/><line class="cls-3" x1="218.09" y1="197.17" x2="205.27" y2="184.35"/><line class="cls-3" x1="233.17" y1="182.87" x2="220.65" y2="170.35"/><line class="cls-3" x1="16.05" y1="267.74" x2="27.07" y2="267.74"/><line class="cls-3" x1="34.82" y1="267.74" x2="338.6" y2="267.74"/><line class="cls-3" x1="96.96" y1="49.97" x2="79.35" y2="67.58"/><line class="cls-3" x1="79.35" y1="49.97" x2="96.96" y2="67.58"/><line class="cls-3" x1="345.35" y1="94.81" x2="327.74" y2="112.42"/><line class="cls-3" x1="327.74" y1="94.81" x2="345.35" y2="112.42"/><circle class="cls-3" cx="285.74" cy="56.54" r="3.49"/><circle class="cls-3" cx="134.66" cy="8" r="5.23"/><circle class="cls-3" cx="348.26" cy="242.29" r="5.23"/><circle class="cls-7" cx="5.44" cy="203.14" r="5.06"/><polygon class="cls-9" points="9.47 108.1 0.38 120.92 18.56 120.92 9.47 108.1"/><polygon class="cls-9" points="219.74 20.8 209.83 34.77 229.65 34.77 219.74 20.8"/><line class="cls-3" x1="144.09" y1="102.82" x2="127.29" y2="119.62"/><line class="cls-3" x1="127.29" y1="102.82" x2="144.09" y2="119.62"/><line class="cls-3" x1="201.61" y1="102.82" x2="184.81" y2="119.62"/><line class="cls-3" x1="184.81" y1="102.82" x2="201.61" y2="119.62"/><path class="cls-3" d="M138.69,159.59c3.79-9.13,13.88-15.66,25.74-15.66s22,6.59,25.78,15.78"/></svg>